<?xml version="1.0" encoding="utf-8"?>
<!-- Generator: Adobe Illustrator 21.0.0, SVG Export Plug-In . SVG Version: 6.00 Build 0)  -->
<svg version="1.1" id="Layer_1" xmlns="http://www.w3.org/2000/svg" xmlns:xlink="http://www.w3.org/1999/xlink" x="0px" y="0px"
	 viewBox="0 0 273.3 253.3" style="enable-background:new 0 0 273.3 253.3;" xml:space="preserve">
<style type="text/css">
	.st0{fill:#79AD9E;stroke:#000000;stroke-miterlimit:10;}
	.st1{fill:#C1C1C1;stroke:#000000;stroke-miterlimit:10;}
	.st2{fill:#699386;stroke:#000000;stroke-miterlimit:10;}
	.st3{fill:#D8EEFC;stroke:#000000;stroke-miterlimit:10;}
	.st4{fill:#FFFFFF;stroke:#000000;stroke-miterlimit:10;}
	.st5{stroke:#FFFFFF;stroke-miterlimit:10;}
	.st6{fill:none;stroke:#000000;stroke-miterlimit:10;}
	.st7{fill:#AFAFAF;stroke:#000000;stroke-miterlimit:10;}
	.st8{fill:#C4B29D;stroke:#000000;stroke-miterlimit:10;}
	.st9{fill:#AA9988;stroke:#000000;stroke-miterlimit:10;}
	.st10{fill:#6DA59F;stroke:#000000;stroke-miterlimit:10;}
	.st11{fill:#44918B;stroke:#000000;stroke-miterlimit:10;}
	.st12{stroke:#000000;stroke-miterlimit:10;}
</style>
<circle class="st10" cx="136.7" cy="77.1" r="53.5"/>
<path class="st1" d="M179.2,134.3H93.5c-6.6,0-12-5.4-12-12V85.1c0-6.6,5.4-12,12-12h85.6c6.6,0,12,5.4,12,12v37.3
	C191.2,128.9,185.8,134.3,179.2,134.3z"/>
<path class="st11" d="M168.7,360.3h-64.5c-6.6,0-12-5.4-12-12l-5.6-32.7c-2.2-13.1-2.4-26.5-0.5-39.6l6.1-41.5c0-6.6,5.4-12,12-12
	h64.5c6.6,0,12,5.4,12,12l6.8,43.2c1.8,11.3,1.7,22.9-0.3,34.2l-6.5,36.4C180.7,354.9,175.3,360.3,168.7,360.3z"/>
<path class="st1" d="M166.7,200.8h-57.5c-6.6,0-12-5.4-12-12v-43c0-6.6,5.4-12,12-12h57.5c6.6,0,12,5.4,12,12v43
	C178.7,195.4,173.3,200.8,166.7,200.8z"/>
<circle class="st1" cx="172.7" cy="113.8" r="29.6"/>
<circle class="st1" cx="97.2" cy="113.8" r="29.6"/>
<circle class="st3" cx="97.2" cy="113.8" r="20"/>
<circle class="st3" cx="172.7" cy="113.8" r="20"/>
<path class="st11" d="M210.7,78.1c0,2.1-35,0-75.9,0s-72.1,2.1-72.1,0s33.1-7.3,74-7.3S210.7,76,210.7,78.1z"/>
<circle class="st5" cx="84" cy="114.7" r="4.9"/>
<circle class="st5" cx="160" cy="114.7" r="4.9"/>
<line class="st6" x1="97.2" y1="185.8" x2="178.7" y2="185.8"/>
<circle class="st7" cx="106.9" cy="193.2" r="3.9"/>
<circle class="st7" cx="169.9" cy="193.2" r="3.9"/>
<circle class="st11" cx="108" cy="61.7" r="3.9"/>
<circle class="st11" cx="120.2" cy="50.7" r="3.9"/>
<circle class="st11" cx="128.8" cy="61.7" r="3.9"/>
<circle class="st11" cx="138.7" cy="50.7" r="3.9"/>
<circle class="st11" cx="146.5" cy="61.7" r="3.9"/>
<circle class="st11" cx="154.7" cy="50.7" r="3.9"/>
<circle class="st11" cx="162.5" cy="61.7" r="3.9"/>
<path class="st7" d="M146.5,226.1l-6.4,1.9c-2.4,0.7-4.9,0.7-7.3,0l-6-1.9v-25.3h19.7V226.1z"/>
<line class="st6" x1="126.8" y1="205.8" x2="146.5" y2="205.8"/>
<line class="st6" x1="126.8" y1="212.8" x2="146.5" y2="212.8"/>
<line class="st6" x1="126.8" y1="219.8" x2="146.5" y2="219.8"/>
<ellipse class="st12" cx="136.7" cy="159" rx="6.9" ry="8.3"/>
</svg>
